<svg width="30" height="32" viewBox="0 0 30 32" fill="none" xmlns="http://www.w3.org/2000/svg">
<g clip-path="url(#clip0_196_179)">
<path fill-rule="evenodd" clip-rule="evenodd" d="M1.8 0H28.2214C29.2071 0 30.0214 0.789333 30.0214 1.792V30.2293C30.0214 31.2107 29.2286 32.0213 28.2214 32.0213H1.8C0.814286 32.0213 0 31.232 0 30.2293V1.792C0 0.789333 0.792857 0 1.8 0Z" fill="white"/>
<path fill-rule="evenodd" clip-rule="evenodd" d="M6.19284 15.6373C5.97856 15.6373 5.80713 15.808 5.80713 16.0426V19.52C5.80713 19.7333 5.97856 19.9253 6.19284 19.9253C6.40713 19.9253 6.57856 19.7546 6.57856 19.52V16.0426C6.59999 15.8293 6.40713 15.6373 6.19284 15.6373ZM6.19284 9.89862C6.40713 9.89862 6.57856 9.72796 6.57856 9.49329V6.03729C6.57856 5.82396 6.40713 5.63196 6.19284 5.63196C5.97856 5.63196 5.80713 5.80262 5.80713 6.03729V9.51462C5.80713 9.72796 5.97856 9.89862 6.19284 9.89862ZM9.47141 16.0426C9.47141 15.8293 9.29999 15.6373 9.0857 15.6373C8.87141 15.6373 8.69999 15.808 8.69999 16.0426V19.52C8.69999 19.7333 8.87141 19.9253 9.0857 19.9253C9.29999 19.9253 9.47141 19.7546 9.47141 19.52V16.0426Z" fill="black"/>
<path fill-rule="evenodd" clip-rule="evenodd" d="M15.1071 9.89862C15.3214 9.89862 15.4928 9.72796 15.4928 9.49329V6.03729C15.4928 5.82396 15.3214 5.63196 15.1071 5.63196C14.8928 5.63196 14.7214 5.80262 14.7214 6.03729V9.51462C14.7 9.72796 14.8714 9.89862 15.1071 9.89862Z" fill="#A7AAAA"/>
<path fill-rule="evenodd" clip-rule="evenodd" d="M23.7 9.89863C23.9143 9.89863 24.0857 9.72796 24.0857 9.49329V6.03729C24.0857 5.82396 23.9143 5.63196 23.7 5.63196C23.4857 5.63196 23.3143 5.80262 23.3143 6.03729V9.51462C23.3143 9.72796 23.4857 9.89863 23.7 9.89863ZM19.4572 5.63196C18.2786 5.63196 17.3357 6.59196 17.3357 7.76529C17.3357 8.93863 18.2786 9.89863 19.4572 9.89863C20.6357 9.89863 21.5786 8.93863 21.5786 7.76529C21.5786 6.59196 20.6143 5.63196 19.4572 5.63196ZM19.4572 9.19462C18.6643 9.19462 18.0214 8.55463 18.0214 7.76529C18.0214 6.97596 18.6643 6.33596 19.4572 6.33596C20.25 6.33596 20.8929 6.97596 20.8929 7.76529C20.8929 8.55463 20.25 9.19462 19.4572 9.19462ZM7.82144 10.688C6.64287 10.688 5.70001 11.648 5.70001 12.8213C5.70001 13.9946 6.64287 14.9546 7.82144 14.9546C9.00001 14.9546 9.94287 13.9946 9.94287 12.8213C9.9643 11.648 9.00001 10.688 7.82144 10.688ZM7.82144 14.2506C7.02858 14.2506 6.38573 13.6106 6.38573 12.8213C6.38573 12.032 7.02858 11.392 7.82144 11.392C8.6143 11.392 9.25716 12.032 9.25716 12.8213C9.25716 13.6106 8.6143 14.2506 7.82144 14.2506ZM17.4643 11.0933V14.5706C17.4643 14.784 17.6357 14.976 17.8714 14.976C18.0857 14.976 18.2572 14.8053 18.2572 14.5706V11.0933C18.2572 10.88 18.0857 10.688 17.8714 10.688C17.6572 10.688 17.4643 10.8586 17.4643 11.0933ZM12.5357 7.76529C12.5357 6.59196 11.5929 5.63196 10.4143 5.63196C9.23573 5.63196 8.29287 6.59196 8.29287 7.76529C8.29287 8.93863 9.23573 9.89863 10.4143 9.89863C11.5714 9.89863 12.5357 8.93863 12.5357 7.76529ZM10.3929 9.19462C9.60001 9.19462 8.95715 8.55463 8.95715 7.76529C8.95715 6.97596 9.60001 6.33596 10.3929 6.33596C11.1857 6.33596 11.8286 6.97596 11.8286 7.76529C11.8286 8.55463 11.1857 9.19462 10.3929 9.19462ZM19.3929 15.6373C18.2143 15.6373 17.2714 16.5973 17.2714 17.7706C17.2714 18.944 18.2143 19.904 19.3929 19.904C20.5714 19.904 21.5143 18.944 21.5143 17.7706C21.5357 16.5973 20.5714 15.6373 19.3929 15.6373ZM19.3929 19.2213C18.6 19.2213 17.9572 18.5813 17.9572 17.792C17.9572 17.0026 18.6 16.3626 19.3929 16.3626C20.1857 16.3626 20.8286 17.0026 20.8286 17.792C20.8286 18.56 20.1857 19.2213 19.3929 19.2213Z" fill="black"/>
<path fill-rule="evenodd" clip-rule="evenodd" d="M15.1072 10.688C14.8929 10.688 14.7214 10.8587 14.7214 11.0933V14.5707C14.7214 14.784 14.8929 14.976 15.1072 14.976C15.3214 14.976 15.4929 14.8053 15.4929 14.5707V11.0933C15.4929 10.8587 15.3214 10.688 15.1072 10.688Z" fill="#A7AAAA"/>
<path fill-rule="evenodd" clip-rule="evenodd" d="M23.7 15.6373C23.4857 15.6373 23.3143 15.808 23.3143 16.0427V19.52C23.3143 19.7333 23.4857 19.9253 23.7 19.9253C23.9143 19.9253 24.0857 19.7547 24.0857 19.52V16.0427C24.1072 15.8293 23.9143 15.6373 23.7 15.6373Z" fill="black"/>
<path fill-rule="evenodd" clip-rule="evenodd" d="M13.2643 15.6373C12.0857 15.6373 11.1429 16.5973 11.1429 17.7707C11.1429 18.944 12.0857 19.904 13.2643 19.904C14.4429 19.904 15.3857 18.944 15.3857 17.7707C15.3857 16.5973 14.4429 15.6373 13.2643 15.6373ZM13.2643 19.2213C12.4714 19.2213 11.8286 18.5813 11.8286 17.792C11.8286 17.0027 12.4714 16.3627 13.2643 16.3627C14.0571 16.3627 14.7 17.0027 14.7 17.792C14.7 18.56 14.0571 19.2213 13.2643 19.2213Z" fill="#A7AAAA"/>
<path fill-rule="evenodd" clip-rule="evenodd" d="M12.4286 11.0933C12.4286 10.88 12.2571 10.688 12.0428 10.688C11.8286 10.688 11.6571 10.8587 11.6571 11.0933V14.5707C11.6571 14.784 11.8286 14.976 12.0428 14.976C12.2571 14.976 12.4286 14.8053 12.4286 14.5707V11.0933ZM22.0714 10.688C20.8928 10.688 19.95 11.648 19.95 12.8213C19.95 13.9947 20.8928 14.9547 22.0714 14.9547C23.25 14.9547 24.1928 13.9947 24.1928 12.8213C24.1928 11.648 23.25 10.688 22.0714 10.688ZM22.0714 14.2507C21.2786 14.2507 20.6357 13.6107 20.6357 12.8213C20.6357 12.032 21.2786 11.392 22.0714 11.392C22.8643 11.392 23.5071 12.032 23.5071 12.8213C23.5071 13.6107 22.8643 14.2507 22.0714 14.2507Z" fill="black"/>
<path fill-rule="evenodd" clip-rule="evenodd" d="M6.08572 24.768C6.08572 24.896 6.02143 24.96 5.89286 24.96C5.78572 24.96 5.7 24.8747 5.7 24.768V22.976H5.55C5.42143 22.976 5.35715 22.912 5.35715 22.8054C5.35715 22.6987 5.42143 22.6347 5.55 22.6347H5.7V22.1014C5.7 21.76 5.93572 21.6107 6.21429 21.6107H6.32143C6.42858 21.6107 6.53572 21.6747 6.53572 21.7814C6.53572 21.888 6.47143 21.952 6.32143 21.952H6.23572C6.12858 21.952 6.08572 22.016 6.08572 22.1014V22.656H6.32143C6.45 22.656 6.51429 22.72 6.51429 22.8267C6.51429 22.9334 6.45 22.9974 6.32143 22.9974H6.08572V24.768ZM9.32143 24.7894C9.32143 24.9174 9.21429 24.9814 9.15 24.9814C9.06429 24.9814 8.97858 24.9387 8.97858 24.7894V24.6187C8.80715 24.8534 8.59286 24.96 8.35715 24.96C7.71429 24.96 7.35 24.384 7.35 23.7867C7.35 23.168 7.71429 22.6134 8.35715 22.6134C8.61429 22.6134 8.80715 22.72 8.97858 22.912V22.784C8.97858 22.656 9.08572 22.592 9.15 22.592C9.21429 22.592 9.32143 22.6347 9.32143 22.784V24.7894ZM8.31429 24.64C8.78572 24.64 8.93572 24.1707 8.93572 23.7867C8.93572 23.4027 8.76429 22.9334 8.31429 22.9334C7.86429 22.9334 7.67143 23.4027 7.67143 23.7867C7.69286 24.1707 7.86429 24.64 8.31429 24.64ZM10.3929 21.8027C10.3929 21.6747 10.4571 21.5894 10.5857 21.5894C10.6929 21.5894 10.7786 21.6747 10.7786 21.8027V22.9334C10.8857 22.784 11.1 22.6134 11.4 22.6134C12.0214 22.6134 12.3857 23.1894 12.3857 23.7867C12.3857 24.4054 12.0214 24.96 11.4 24.96C11.1 24.96 10.8857 24.8534 10.7786 24.64V24.7467C10.7786 24.8747 10.7143 24.9387 10.5857 24.9387C10.4786 24.9387 10.3929 24.8534 10.3929 24.7467V21.8027ZM11.3786 24.64C11.85 24.64 12.0214 24.1707 12.0214 23.7867C12.0214 23.4027 11.85 22.9334 11.3786 22.9334C10.9071 22.9334 10.7357 23.4027 10.7357 23.7867C10.7357 24.1707 10.9071 24.64 11.3786 24.64ZM13.9071 24.768C13.9071 24.896 13.8429 24.96 13.7143 24.96C13.6071 24.96 13.5214 24.8747 13.5214 24.768V22.976H13.3714C13.2429 22.976 13.1786 22.912 13.1786 22.8054C13.1786 22.6987 13.2429 22.6347 13.3714 22.6347H13.5214V22.1014C13.5214 21.76 13.7571 21.6107 14.0357 21.6107H14.1429C14.25 21.6107 14.3571 21.6747 14.3571 21.7814C14.3571 21.888 14.2929 21.952 14.1429 21.952H14.0571C13.95 21.952 13.9071 22.016 13.9071 22.1014V22.656H14.1429C14.2714 22.656 14.3357 22.72 14.3357 22.8267C14.3357 22.9334 14.2714 22.9974 14.1429 22.9974H13.9071V24.768ZM15.5786 21.824C15.7071 21.824 15.8143 21.9307 15.8143 22.0587C15.8143 22.1867 15.7071 22.2934 15.5786 22.2934C15.45 22.2934 15.3429 22.1867 15.3429 22.0587C15.3429 21.9307 15.45 21.824 15.5786 21.824ZM15.7714 24.768C15.7714 24.896 15.7071 24.9814 15.5786 24.9814C15.4714 24.9814 15.3857 24.896 15.3857 24.768V22.8054C15.3857 22.6774 15.45 22.6134 15.5786 22.6134C15.6857 22.6134 15.7714 22.6987 15.7714 22.8054V24.768ZM17.4 24.768C17.4 24.896 17.3357 24.96 17.2071 24.96C17.1 24.96 17.0143 24.8747 17.0143 24.768V21.8027C17.0143 21.6747 17.0786 21.5894 17.2071 21.5894C17.3143 21.5894 17.4 21.6747 17.4 21.8027V24.768ZM18.75 22.144C18.75 22.016 18.8143 21.9307 18.9429 21.9307C19.05 21.9307 19.1357 22.016 19.1357 22.144V22.6347H19.2857C19.4143 22.6347 19.4786 22.6987 19.4786 22.8054C19.4786 22.912 19.4143 22.976 19.2857 22.976H19.1357V24.768C19.1357 24.896 19.0714 24.96 18.9429 24.96C18.8357 24.96 18.75 24.8747 18.75 24.768V22.976H18.6C18.4714 22.976 18.4071 22.912 18.4071 22.8054C18.4071 22.6987 18.4714 22.6347 18.6 22.6347H18.75V22.144ZM20.7 23.936C20.7 24.32 20.9571 24.64 21.3857 24.64C21.9 24.64 22.0286 24.32 22.1571 24.32C22.2214 24.32 22.2857 24.384 22.2857 24.4907C22.2857 24.6827 21.8143 24.96 21.3643 24.96C20.6357 24.96 20.3143 24.384 20.3143 23.7867C20.3143 23.168 20.7 22.6134 21.3429 22.6134C21.9643 22.6134 22.3286 23.1894 22.3286 23.744C22.3286 23.872 22.2857 23.9574 22.1143 23.9574L20.7 23.936ZM21.9643 23.6374C21.9643 23.3174 21.7714 22.9334 21.3643 22.9334C20.8929 22.912 20.7214 23.296 20.7 23.6374H21.9643ZM23.3357 22.8054C23.3357 22.6774 23.4 22.6134 23.5286 22.6134C23.6357 22.6134 23.7214 22.6987 23.7214 22.8054V22.9974C23.8071 22.8267 24.0214 22.592 24.2357 22.592C24.3643 22.592 24.45 22.6774 24.45 22.784C24.45 22.8907 24.3643 22.9547 24.2143 22.9974C23.9786 23.04 23.7214 23.2107 23.7214 23.6587V24.7467C23.7214 24.8747 23.6571 24.96 23.5286 24.96C23.4 24.96 23.3357 24.8747 23.3357 24.7467V22.8054ZM5.97858 26.7734C6.08572 26.7734 6.25715 26.8374 6.25715 26.9227C6.25715 26.944 6.23572 26.9867 6.19286 26.9867C6.12858 26.9867 6.10715 26.9014 5.97858 26.9014C5.89286 26.9014 5.82858 26.944 5.82858 27.008C5.82858 27.1574 6.27858 27.136 6.27858 27.392C6.27858 27.5627 6.12858 27.648 5.97858 27.648C5.80715 27.648 5.65715 27.5627 5.65715 27.4774C5.65715 27.4347 5.67858 27.4134 5.72143 27.4134C5.78572 27.4134 5.82858 27.52 5.97858 27.52C6.08572 27.52 6.15 27.456 6.15 27.4134C6.15 27.2427 5.7 27.264 5.7 27.0294C5.67858 26.8587 5.82858 26.7734 5.97858 26.7734ZM6.98572 26.7734C7.22143 26.7734 7.35 26.9867 7.35 27.2C7.35 27.4134 7.22143 27.6267 6.98572 27.6267C6.75 27.6267 6.62143 27.4134 6.62143 27.2C6.62143 26.9867 6.75 26.7734 6.98572 26.7734ZM6.98572 27.52C7.15715 27.52 7.22143 27.3494 7.22143 27.2C7.22143 27.0507 7.15715 26.88 6.98572 26.88C6.81429 26.88 6.75 27.0507 6.75 27.2C6.75 27.3494 6.81429 27.52 6.98572 27.52ZM7.92858 27.5627C7.92858 27.6054 7.90715 27.6267 7.86429 27.6267C7.82143 27.6267 7.8 27.6054 7.8 27.5627V26.9014H7.73572C7.69286 26.9014 7.67143 26.88 7.67143 26.8374C7.67143 26.7947 7.69286 26.7734 7.73572 26.7734H7.8V26.5814C7.8 26.4534 7.88572 26.3894 7.99286 26.3894H8.03572C8.07858 26.3894 8.12143 26.4107 8.12143 26.4534C8.12143 26.496 8.1 26.5174 8.03572 26.5174H7.99286C7.95 26.5174 7.92858 26.5387 7.92858 26.5814V26.7947H8.01429C8.05715 26.7947 8.07858 26.816 8.07858 26.8587C8.07858 26.9014 8.05715 26.9227 8.01429 26.9227H7.92858V27.5627ZM8.44286 26.6027C8.44286 26.56 8.46429 26.5174 8.50715 26.5174C8.55 26.5174 8.57143 26.5387 8.57143 26.6027V26.7947H8.63572C8.67858 26.7947 8.7 26.816 8.7 26.8587C8.7 26.9014 8.67858 26.9227 8.63572 26.9227H8.57143V27.584C8.57143 27.6267 8.55 27.648 8.50715 27.648C8.46429 27.648 8.44286 27.6267 8.44286 27.584V26.9227H8.37858C8.33572 26.9227 8.31429 26.9014 8.31429 26.8587C8.31429 26.816 8.33572 26.7947 8.37858 26.7947H8.44286V26.6027ZM8.95715 26.88C8.95715 26.8587 8.93572 26.8374 8.93572 26.816C8.93572 26.7947 8.95715 26.752 9 26.752C9.02143 26.752 9.06429 26.7734 9.08572 26.816L9.25715 27.392L9.42858 26.8374C9.45 26.7734 9.47143 26.752 9.51429 26.752C9.55715 26.752 9.57858 26.7734 9.6 26.8374L9.77143 27.392L9.94286 26.816C9.96429 26.752 9.98572 26.752 10.0286 26.752C10.0714 26.752 10.0929 26.7947 10.0929 26.816C10.0929 26.8374 10.0929 26.8587 10.0714 26.88L9.83572 27.5627C9.81429 27.6267 9.79286 27.6267 9.75 27.6267C9.70715 27.6267 9.68572 27.6054 9.66429 27.5627L9.49286 26.9867L9.32143 27.5627C9.3 27.6267 9.27858 27.6267 9.23572 27.6267C9.19286 27.6267 9.17143 27.6054 9.15 27.5627L8.95715 26.88ZM11.1643 27.5627C11.1643 27.6054 11.1214 27.6267 11.1 27.6267C11.0786 27.6267 11.0357 27.6054 11.0357 27.5627V27.52C10.9714 27.6054 10.8857 27.648 10.8 27.648C10.5643 27.648 10.4357 27.4347 10.4357 27.2214C10.4357 26.9867 10.5643 26.7947 10.8 26.7947C10.9071 26.7947 10.9714 26.8374 11.0357 26.9014V26.8587C11.0357 26.816 11.0786 26.7947 11.1 26.7947C11.1214 26.7947 11.1643 26.816 11.1643 26.8587V27.5627ZM10.8 27.52C10.9714 27.52 11.0357 27.3494 11.0357 27.2C11.0357 27.0507 10.9714 26.88 10.8 26.88C10.6286 26.88 10.5643 27.0507 10.5643 27.2C10.5643 27.3494 10.6286 27.52 10.8 27.52ZM11.5929 26.8374C11.5929 26.7947 11.6143 26.752 11.6571 26.752C11.7 26.752 11.7214 26.7734 11.7214 26.8374V26.9014C11.7429 26.8374 11.8286 26.752 11.9143 26.752C11.9571 26.752 12 26.7734 12 26.816C12 26.8587 11.9786 26.88 11.9143 26.9014C11.8286 26.9227 11.7214 26.9867 11.7214 27.136V27.5414C11.7214 27.584 11.7 27.6054 11.6571 27.6054C11.6143 27.6054 11.5929 27.584 11.5929 27.5414V26.8374ZM12.4071 27.264C12.4071 27.4134 12.4929 27.52 12.6643 27.52C12.8571 27.52 12.9 27.4134 12.9429 27.4134C12.9643 27.4134 12.9857 27.4347 12.9857 27.4774C12.9857 27.5414 12.8143 27.648 12.6429 27.648C12.3643 27.648 12.2571 27.4347 12.2571 27.2214C12.2571 26.9867 12.4071 26.7947 12.6429 26.7947C12.8786 26.7947 13.0071 27.008 13.0071 27.2C13.0071 27.2427 12.9857 27.2854 12.9214 27.2854L12.4071 27.264ZM12.8786 27.1574C12.8786 27.0294 12.8143 26.9014 12.6643 26.9014C12.4929 26.9014 12.4286 27.0294 12.4286 27.1574H12.8786ZM14.1857 26.4747C14.2286 26.4747 14.2714 26.5174 14.2714 26.56C14.2714 26.6027 14.2286 26.6454 14.1857 26.6454C14.1429 26.6454 14.1 26.6027 14.1 26.56C14.1 26.5174 14.1214 26.4747 14.1857 26.4747ZM14.25 27.5627C14.25 27.6054 14.2286 27.6267 14.1857 27.6267C14.1429 27.6267 14.1214 27.6054 14.1214 27.5627V26.8374C14.1214 26.7947 14.1429 26.752 14.1857 26.752C14.2286 26.752 14.25 26.7734 14.25 26.8374V27.5627ZM14.6571 26.8374C14.6571 26.7947 14.6786 26.752 14.7214 26.752C14.7643 26.752 14.7857 26.7734 14.7857 26.8374V26.88C14.85 26.7947 14.9357 26.7734 15.0214 26.7734C15.15 26.7734 15.3214 26.8587 15.3214 27.0934V27.5627C15.3214 27.6054 15.3 27.6267 15.2571 27.6267C15.2143 27.6267 15.1929 27.6054 15.1929 27.5627V27.0934C15.1929 26.944 15.0857 26.88 15 26.88C14.9143 26.88 14.8071 26.944 14.8071 27.0934V27.5627C14.8071 27.6054 14.7857 27.6267 14.7429 27.6267C14.7 27.6267 14.6786 27.6054 14.6786 27.5627L14.6571 26.8374ZM16.0286 26.7734C16.1357 26.7734 16.3071 26.8374 16.3071 26.9227C16.3071 26.944 16.2857 26.9867 16.2429 26.9867C16.1786 26.9867 16.1571 26.9014 16.0286 26.9014C15.9429 26.9014 15.8786 26.944 15.8786 27.008C15.8786 27.1574 16.3286 27.136 16.3286 27.392C16.3286 27.5627 16.1786 27.648 16.0286 27.648C15.8571 27.648 15.7071 27.5627 15.7071 27.4774C15.7071 27.4347 15.7286 27.4134 15.7714 27.4134C15.8357 27.4134 15.8786 27.52 16.0286 27.52C16.1357 27.52 16.2 27.456 16.2 27.4134C16.2 27.2427 15.75 27.264 15.75 27.0294C15.75 26.8587 15.8786 26.7734 16.0286 26.7734ZM16.7571 26.6027C16.7571 26.56 16.7786 26.5174 16.8214 26.5174C16.8643 26.5174 16.8857 26.5387 16.8857 26.6027V26.7947H16.95C16.9929 26.7947 17.0143 26.816 17.0143 26.8587C17.0143 26.9014 16.9929 26.9227 16.95 26.9227H16.8857V27.584C16.8857 27.6267 16.8643 27.648 16.8214 27.648C16.7786 27.648 16.7571 27.6267 16.7571 27.584V26.9227H16.6929C16.65 26.9227 16.6286 26.9014 16.6286 26.8587C16.6286 26.816 16.65 26.7947 16.6929 26.7947H16.7571V26.6027ZM17.3571 26.8374C17.3571 26.7947 17.3786 26.752 17.4214 26.752C17.4643 26.752 17.4857 26.7734 17.4857 26.8374V26.9014C17.5071 26.8374 17.5929 26.752 17.6786 26.752C17.7214 26.752 17.7643 26.7734 17.7643 26.816C17.7643 26.8587 17.7429 26.88 17.6786 26.9014C17.5929 26.9227 17.4857 26.9867 17.4857 27.136V27.5414C17.4857 27.584 17.4643 27.6054 17.4214 27.6054C17.3786 27.6054 17.3571 27.584 17.3571 27.5414V26.8374ZM18.0857 26.8374C18.0857 26.7947 18.1071 26.752 18.15 26.752C18.1929 26.752 18.2143 26.7734 18.2143 26.8374V27.2854C18.2143 27.4347 18.2786 27.4987 18.4071 27.4987C18.5357 27.4987 18.6 27.4134 18.6 27.2854V26.8374C18.6 26.7947 18.6214 26.752 18.6643 26.752C18.7071 26.752 18.7286 26.7734 18.7286 26.8374V27.2854C18.7286 27.5414 18.5571 27.6267 18.3857 27.6267C18.2143 27.6267 18.0429 27.5414 18.0429 27.2854L18.0857 26.8374ZM19.6929 27.0934C19.6929 26.9654 19.6286 26.9014 19.5214 26.9014C19.4143 26.9014 19.35 26.9867 19.35 27.0934V27.5627C19.35 27.6054 19.3286 27.6267 19.2857 27.6267C19.2429 27.6267 19.2214 27.6054 19.2214 27.5627V26.8374C19.2214 26.7947 19.2429 26.752 19.2857 26.752C19.3286 26.752 19.35 26.7734 19.35 26.8374V26.8587C19.3929 26.816 19.4357 26.752 19.5643 26.752C19.65 26.752 19.7357 26.7947 19.8 26.9014C19.8643 26.816 19.9286 26.752 20.0571 26.752C20.1857 26.752 20.3571 26.8374 20.3571 27.072V27.5414C20.3571 27.584 20.3357 27.6054 20.2929 27.6054C20.25 27.6054 20.2286 27.584 20.2286 27.5414V27.0934C20.2286 26.9654 20.1643 26.9014 20.0571 26.9014C19.95 26.9014 19.8857 26.9867 19.8857 27.0934V27.5627C19.8857 27.6054 19.8643 27.6267 19.8214 27.6267C19.7786 27.6267 19.7571 27.6054 19.7571 27.5627L19.6929 27.0934ZM20.85 27.264C20.85 27.4134 20.9357 27.52 21.1071 27.52C21.3 27.52 21.3429 27.4134 21.3857 27.4134C21.4071 27.4134 21.4286 27.4347 21.4286 27.4774C21.4286 27.5414 21.2571 27.648 21.0857 27.648C20.8071 27.648 20.7 27.4347 20.7 27.2214C20.7 26.9867 20.85 26.7947 21.0857 26.7947C21.3214 26.7947 21.45 27.008 21.45 27.2C21.45 27.2427 21.4286 27.2854 21.3643 27.2854L20.85 27.264ZM21.3 27.1574C21.3 27.0294 21.2357 26.9014 21.0857 26.9014C20.9143 26.9014 20.85 27.0294 20.85 27.1574H21.3ZM21.8143 26.8374C21.8143 26.7947 21.8357 26.752 21.8786 26.752C21.9214 26.752 21.9429 26.7734 21.9429 26.8374V26.88C22.0071 26.7947 22.0929 26.7734 22.1786 26.7734C22.3071 26.7734 22.4786 26.8587 22.4786 27.0934V27.5627C22.4786 27.6054 22.4571 27.6267 22.4143 27.6267C22.3714 27.6267 22.35 27.6054 22.35 27.5627V27.0934C22.35 26.944 22.2429 26.88 22.1571 26.88C22.0714 26.88 21.9643 26.944 21.9643 27.0934V27.5627C21.9643 27.6054 21.9429 27.6267 21.9 27.6267C21.8571 27.6267 21.8357 27.6054 21.8357 27.5627L21.8143 26.8374ZM22.95 26.6027C22.95 26.56 22.9714 26.5174 23.0143 26.5174C23.0571 26.5174 23.0786 26.5387 23.0786 26.6027V26.7947H23.1429C23.1857 26.7947 23.2071 26.816 23.2071 26.8587C23.2071 26.9014 23.1857 26.9227 23.1429 26.9227H23.0786V27.584C23.0786 27.6267 23.0571 27.648 23.0143 27.648C22.9714 27.648 22.95 27.6267 22.95 27.584V26.9227H22.8857C22.8429 26.9227 22.8214 26.9014 22.8214 26.8587C22.8214 26.816 22.8429 26.7947 22.8857 26.7947H22.95V26.6027ZM23.8286 26.7734C23.9357 26.7734 24.1071 26.8374 24.1071 26.9227C24.1071 26.944 24.0857 26.9867 24.0429 26.9867C23.9786 26.9867 23.9571 26.9014 23.8286 26.9014C23.7429 26.9014 23.6786 26.944 23.6786 27.008C23.6786 27.1574 24.1286 27.136 24.1286 27.392C24.1286 27.5627 23.9786 27.648 23.8286 27.648C23.6571 27.648 23.5071 27.5627 23.5071 27.4774C23.5071 27.4347 23.5286 27.4134 23.5714 27.4134C23.6357 27.4134 23.6786 27.52 23.8286 27.52C23.9357 27.52 24 27.456 24 27.4134C24 27.2427 23.55 27.264 23.55 27.0294C23.55 26.8587 23.6786 26.7734 23.8286 26.7734Z" fill="#A7AAAA"/>
</g>
<defs>
<clipPath id="clip0_196_179">
<rect width="30" height="32" fill="white"/>
</clipPath>
</defs>
</svg>
