<svg width="58" height="32" viewBox="0 0 58 32" fill="none" xmlns="http://www.w3.org/2000/svg">
<g clip-path="url(#clip0_196_191)">
<path d="M50.8305 2.79167C50.8305 2.22117 50.6023 1.67405 50.1961 1.27065C49.7899 0.867252 49.239 0.640625 48.6646 0.640625H9.28643C8.71198 0.640625 8.16105 0.867252 7.75485 1.27065C7.34865 1.67405 7.12045 2.22117 7.12045 2.79167V29.1776C7.12045 29.7481 7.34865 30.2952 7.75485 30.6986C8.16105 31.102 8.71198 31.3286 9.28643 31.3286H48.6646C49.239 31.3286 49.7899 31.102 50.1961 30.6986C50.6023 30.2952 50.8305 29.7481 50.8305 29.1776V2.79167Z" stroke="#808080" stroke-width="2"/>
<path d="M42.5166 8.14396C42.5226 7.54065 42.5256 6.93627 42.5256 6.33083C42.5256 6.31291 42.5166 6.30396 42.4985 6.30396H40.859C40.8371 6.30396 40.8262 6.31484 40.8262 6.3366C40.8249 9.959 40.8249 13.5814 40.8262 17.2038C40.8268 18.1875 41.5215 18.9817 42.4089 19.2204C42.6452 19.284 43.0426 19.3152 43.6012 19.3139C44.8608 19.3113 46.1209 19.3109 47.3815 19.3126C47.4038 19.3126 47.415 19.3015 47.415 19.2793V17.6332C47.415 17.6209 47.409 17.6147 47.3969 17.6147C45.9933 17.6164 44.6028 17.6164 43.2254 17.6147C42.7956 17.614 42.5333 17.5494 42.5333 17.072V8.17852C42.5333 8.17041 42.5301 8.1638 42.5236 8.15868C42.5189 8.15441 42.5166 8.1495 42.5166 8.14396ZM27.8883 14.1299C31.0409 14.1256 34.1933 14.1256 37.3455 14.1299C37.7032 14.1299 37.7973 14.4076 37.7966 14.7276C37.7962 15.4624 37.7962 16.1975 37.7966 16.9331C37.7973 17.3075 37.7212 17.5833 37.2972 17.5833C34.5373 17.5837 31.7771 17.584 29.0167 17.584C28.9948 17.584 28.9839 17.595 28.9839 17.6172V19.2467C28.9839 19.2684 28.9948 19.2793 29.0167 19.2793C31.6645 19.2806 34.3128 19.2806 36.9614 19.2793C37.4254 19.2789 37.7618 19.2471 37.9706 19.184C38.9431 18.8908 39.5064 18.0448 39.516 17.024C39.522 16.4091 39.5233 15.7941 39.5199 15.1788C39.516 14.561 39.4795 14.138 39.4103 13.9097C39.1384 13.0156 38.2439 12.4307 37.312 12.4313C33.6017 12.433 29.8867 12.4328 26.167 12.4307C26.1438 12.4307 26.1322 12.4422 26.1322 12.4652V25.2806C26.1322 25.3024 26.1432 25.3132 26.1651 25.3132L27.8226 25.3139C27.8445 25.3139 27.8554 25.303 27.8554 25.2812L27.8561 14.1612C27.8561 14.1403 27.8668 14.1299 27.8883 14.1299ZM13.938 15.0201C13.2588 15.0188 13.28 14.142 13.9522 14.142L24.8104 14.1446C24.8324 14.1446 24.8433 14.1337 24.8433 14.112V12.4659C24.8433 12.4458 24.8332 12.436 24.813 12.4364C24.2347 12.4501 23.45 12.4497 22.4589 12.4352C21.1614 12.4164 18.4689 12.4196 14.3814 12.4448C13.8237 12.4482 13.4339 12.4838 13.2117 12.5516C11.9145 12.9478 11.3441 14.4512 12.0002 15.63C12.4118 16.3686 13.0895 16.7377 14.0334 16.7372C16.9742 16.7355 19.9148 16.7353 22.8552 16.7366C23.0434 16.7366 23.1798 16.7611 23.2644 16.8102C23.5177 16.9574 23.519 17.3868 23.2625 17.5462C23.1864 17.5931 23.0747 17.6166 22.9274 17.6166C20.1468 17.6149 17.366 17.6153 14.585 17.6179C14.0502 17.6179 12.9939 17.6473 12.1954 17.6192C12.1744 17.6183 12.1639 17.6283 12.1639 17.6492V19.2953C12.1639 19.3179 12.1753 19.3292 12.198 19.3292C15.7618 19.3297 19.3258 19.3254 22.89 19.3164C23.9211 19.3134 24.6313 18.8693 25.0205 17.984C25.5438 16.7948 24.7827 15.4246 23.5628 15.1129C23.3274 15.0523 22.9003 15.0225 22.2816 15.0233C19.5007 15.0259 16.7194 15.0248 13.938 15.0201Z" stroke="#808080" stroke-width="2"/>
<path d="M50.8305 29.1776C50.8305 29.7481 50.6023 30.2952 50.1961 30.6986C49.7899 31.102 49.239 31.3286 48.6646 31.3286H9.28643C8.71198 31.3286 8.16105 31.102 7.75485 30.6986C7.34865 30.2952 7.12045 29.7481 7.12045 29.1776V2.79167C7.12045 2.22117 7.34865 1.67405 7.75485 1.27065C8.16105 0.867252 8.71198 0.640625 9.28643 0.640625H48.6646C49.239 0.640625 49.7899 0.867252 50.1961 1.27065C50.6023 1.67405 50.8305 2.22117 50.8305 2.79167V29.1776ZM42.5166 8.14399C42.5226 7.54068 42.5256 6.93631 42.5256 6.33087C42.5256 6.31295 42.5166 6.30399 42.4985 6.30399H40.8591C40.8371 6.30399 40.8262 6.31487 40.8262 6.33663C40.8249 9.95903 40.8249 13.5814 40.8262 17.2038C40.8268 18.1875 41.5215 18.9817 42.4089 19.2205C42.6452 19.284 43.0426 19.3152 43.6012 19.3139C44.8608 19.3113 46.1209 19.3109 47.3815 19.3126C47.4038 19.3126 47.415 19.3015 47.415 19.2793V17.6333C47.415 17.6209 47.409 17.6147 47.3969 17.6147C45.9933 17.6164 44.6028 17.6164 43.2255 17.6147C42.7956 17.6141 42.5333 17.5494 42.5333 17.072V8.17855C42.5333 8.17044 42.5301 8.16383 42.5237 8.15871C42.5189 8.15444 42.5166 8.14953 42.5166 8.14399ZM27.8883 14.1299C31.0409 14.1256 34.1934 14.1256 37.3455 14.1299C37.7032 14.1299 37.7973 14.4077 37.7967 14.7277C37.7962 15.4624 37.7962 16.1975 37.7967 16.9331C37.7973 17.3075 37.7213 17.5833 37.2972 17.5833C34.5373 17.5838 31.7771 17.584 29.0167 17.584C28.9948 17.584 28.9839 17.5951 28.9839 17.6173V19.2467C28.9839 19.2685 28.9948 19.2793 29.0167 19.2793C31.6646 19.2806 34.3128 19.2806 36.9615 19.2793C37.4255 19.2789 37.7619 19.2471 37.9707 19.184C38.9431 18.8909 39.5064 18.0448 39.516 17.024C39.522 16.4092 39.5233 15.7941 39.5199 15.1789C39.516 14.5611 39.4795 14.138 39.4103 13.9097C39.1384 13.0157 38.2439 12.4307 37.312 12.4313C33.6017 12.4331 29.8867 12.4328 26.167 12.4307C26.1438 12.4307 26.1322 12.4422 26.1322 12.4653V25.2806C26.1322 25.3024 26.1432 25.3133 26.1651 25.3133L27.8226 25.3139C27.8445 25.3139 27.8555 25.303 27.8555 25.2813L27.8561 14.1613C27.8561 14.1404 27.8668 14.1299 27.8883 14.1299ZM13.938 15.0201C13.2588 15.0189 13.2801 14.1421 13.9522 14.1421L24.8105 14.1446C24.8324 14.1446 24.8433 14.1337 24.8433 14.112V12.4659C24.8433 12.4459 24.8332 12.436 24.813 12.4365C24.2347 12.4501 23.45 12.4497 22.4589 12.4352C21.1614 12.4164 18.4689 12.4196 14.3814 12.4448C13.8237 12.4482 13.4339 12.4838 13.2117 12.5517C11.9145 12.9478 11.3441 14.4512 12.0002 15.6301C12.4118 16.3686 13.0895 16.7377 14.0334 16.7373C16.9742 16.7356 19.9148 16.7353 22.8552 16.7366C23.0434 16.7366 23.1798 16.7612 23.2644 16.8102C23.5177 16.9574 23.519 17.3869 23.2625 17.5462C23.1865 17.5932 23.0747 17.6166 22.9274 17.6166C20.1468 17.6149 17.366 17.6153 14.5851 17.6179C14.0502 17.6179 12.9939 17.6473 12.1955 17.6192C12.1744 17.6183 12.1639 17.6284 12.1639 17.6493V19.2953C12.1639 19.318 12.1753 19.3293 12.198 19.3293C15.7618 19.3297 19.3258 19.3254 22.89 19.3165C23.9211 19.3135 24.6313 18.8693 25.0205 17.984C25.5438 16.7949 24.7827 15.4246 23.5628 15.1129C23.3274 15.0524 22.9003 15.0225 22.2817 15.0233C19.5007 15.0259 16.7195 15.0248 13.938 15.0201Z" fill="white"/>
<path d="M42.5166 8.14396C42.5166 8.1495 42.5189 8.15441 42.5237 8.15868C42.5301 8.1638 42.5333 8.17041 42.5333 8.17852V17.072C42.5333 17.5494 42.7956 17.614 43.2255 17.6147C44.6029 17.6164 45.9934 17.6164 47.397 17.6147C47.409 17.6147 47.415 17.6209 47.415 17.6332V19.2793C47.415 19.3015 47.4038 19.3126 47.3815 19.3126C46.121 19.3109 44.8609 19.3113 43.6012 19.3139C43.0427 19.3152 42.6453 19.284 42.409 19.2204C41.5216 18.9817 40.8269 18.1875 40.8262 17.2038C40.8249 13.5814 40.8249 9.959 40.8262 6.3366C40.8262 6.31484 40.8372 6.30396 40.8591 6.30396H42.4985C42.5166 6.30396 42.5256 6.31291 42.5256 6.33083C42.5256 6.93627 42.5226 7.54065 42.5166 8.14396ZM27.8561 14.1612L27.8555 25.2812C27.8555 25.303 27.8445 25.3139 27.8226 25.3139L26.1651 25.3132C26.1432 25.3132 26.1322 25.3024 26.1322 25.2806V12.4652C26.1322 12.4422 26.1438 12.4307 26.167 12.4307C29.8868 12.4328 33.6018 12.433 37.3121 12.4313C38.2439 12.4307 39.1384 13.0156 39.4104 13.9097C39.4795 14.138 39.5161 14.561 39.5199 15.1788C39.5234 15.7941 39.5221 16.4091 39.5161 17.024C39.5064 18.0448 38.9431 18.8908 37.9707 19.184C37.7619 19.2471 37.4255 19.2789 36.9615 19.2793C34.3128 19.2806 31.6646 19.2806 29.0168 19.2793C28.9949 19.2793 28.9839 19.2684 28.9839 19.2467V17.6172C28.9839 17.595 28.9949 17.584 29.0168 17.584C31.7771 17.584 34.5373 17.5837 37.2972 17.5833C37.7213 17.5833 37.7973 17.3075 37.7967 16.9331C37.7962 16.1975 37.7962 15.4624 37.7967 14.7276C37.7973 14.4076 37.7032 14.1299 37.3456 14.1299C34.1934 14.1256 31.041 14.1256 27.8883 14.1299C27.8669 14.1299 27.8561 14.1403 27.8561 14.1612ZM13.9381 15.0201C16.7195 15.0248 19.5007 15.0259 22.2817 15.0233C22.9003 15.0225 23.3274 15.0523 23.5628 15.1129C24.7828 15.4246 25.5439 16.7948 25.0206 17.984C24.6313 18.8693 23.9211 19.3134 22.89 19.3164C19.3258 19.3254 15.7618 19.3297 12.1981 19.3292C12.1753 19.3292 12.1639 19.3179 12.1639 19.2953V17.6492C12.1639 17.6283 12.1744 17.6183 12.1955 17.6192C12.9939 17.6473 14.0502 17.6179 14.5851 17.6179C17.3661 17.6153 20.1468 17.6149 22.9274 17.6166C23.0748 17.6166 23.1865 17.5931 23.2625 17.5462C23.519 17.3868 23.5177 16.9574 23.2645 16.8102C23.1798 16.7611 23.0434 16.7366 22.8552 16.7366C19.9148 16.7353 16.9742 16.7355 14.0334 16.7372C13.0895 16.7377 12.4118 16.3686 12.0002 15.63C11.3442 14.4512 11.9145 12.9478 13.2118 12.5516C13.4339 12.4838 13.8238 12.4482 14.3814 12.4448C18.4689 12.4196 21.1614 12.4164 22.4589 12.4352C23.4501 12.4497 24.2348 12.4501 24.8131 12.4364C24.8332 12.436 24.8433 12.4458 24.8433 12.4659V14.112C24.8433 14.1337 24.8324 14.1446 24.8105 14.1446L13.9522 14.142C13.2801 14.142 13.2588 15.0188 13.9381 15.0201Z" fill="#8F8F8F"/>
</g>
<defs>
<clipPath id="clip0_196_191">
<rect width="58" height="32" fill="white"/>
</clipPath>
</defs>
</svg>
