<svg width="32" height="32" viewBox="0 0 32 32" fill="none" xmlns="http://www.w3.org/2000/svg">
<path d="M27.9998 16C27.9998 16.2652 27.8945 16.5196 27.7069 16.7071C27.5194 16.8946 27.265 17 26.9998 17L7.41356 17L14.7073 24.2925C14.8002 24.3854 14.8739 24.4957 14.9242 24.6171C14.9745 24.7385 15.0004 24.8686 15.0004 25C15.0004 25.1314 14.9745 25.2615 14.9242 25.3829C14.8739 25.5043 14.8002 25.6146 14.7073 25.7075C14.6144 25.8004 14.5041 25.8741 14.3827 25.9244C14.2613 25.9747 14.1312 26.0006 13.9998 26.0006C13.8684 26.0006 13.7383 25.9747 13.6169 25.9244C13.4955 25.8741 13.3852 25.8004 13.2923 25.7075L4.29231 16.7075C4.19933 16.6146 4.12557 16.5043 4.07525 16.3829C4.02493 16.2615 3.99902 16.1314 3.99902 16C3.99902 15.8686 4.02493 15.7385 4.07525 15.6171C4.12557 15.4957 4.19933 15.3854 4.29231 15.2925L13.2923 6.2925C13.4799 6.10486 13.7344 5.99944 13.9998 5.99944C14.2652 5.99944 14.5197 6.10486 14.7073 6.2925C14.895 6.48014 15.0004 6.73464 15.0004 7C15.0004 7.26536 14.895 7.51986 14.7073 7.7075L7.41356 15L26.9998 15C27.265 15 27.5194 15.1054 27.7069 15.2929C27.8945 15.4804 27.9998 15.7348 27.9998 16Z" fill="#00FF00"/>
</svg>
