<svg width="32" height="32" viewBox="0 0 32 32" fill="none" xmlns="http://www.w3.org/2000/svg">
<path d="M4.00019 16C4.00019 15.7348 4.10555 15.4804 4.29308 15.2929C4.48062 15.1054 4.73497 15 5.00019 15L24.5864 15L17.2927 7.7075C17.1998 7.61459 17.1261 7.50429 17.0758 7.3829C17.0255 7.26151 16.9996 7.1314 16.9996 7C16.9996 6.86861 17.0255 6.7385 17.0758 6.61711C17.1261 6.49571 17.1998 6.38541 17.2927 6.2925C17.3856 6.19959 17.4959 6.12589 17.6173 6.07561C17.7387 6.02533 17.8688 5.99944 18.0002 5.99944C18.1316 5.99944 18.2617 6.02533 18.3831 6.07561C18.5045 6.12589 18.6148 6.19959 18.7077 6.2925L27.7077 15.2925C27.8007 15.3854 27.8744 15.4957 27.9248 15.6171C27.9751 15.7385 28.001 15.8686 28.001 16C28.001 16.1314 27.9751 16.2615 27.9248 16.3829C27.8744 16.5043 27.8007 16.6146 27.7077 16.7075L18.7077 25.7075C18.5201 25.8951 18.2656 26.0006 18.0002 26.0006C17.7348 26.0006 17.4803 25.8951 17.2927 25.7075C17.105 25.5199 16.9996 25.2654 16.9996 25C16.9996 24.7346 17.105 24.4801 17.2927 24.2925L24.5864 17L5.00019 17C4.73497 17 4.48062 16.8946 4.29308 16.7071C4.10555 16.5196 4.00019 16.2652 4.00019 16Z" fill="#00FF00"/>
</svg>
