<svg width="18" height="18" viewBox="0 0 18 18" fill="none" xmlns="http://www.w3.org/2000/svg">
<path d="M15.75 10.8843L12.439 9.40001L12.4263 9.39439C12.2111 9.30161 11.9761 9.26425 11.7427 9.28575C11.5093 9.30724 11.285 9.3869 11.0904 9.51744C11.0631 9.5357 11.0368 9.55542 11.0116 9.5765L9.44297 10.9124C8.52891 10.4167 7.58461 9.48017 7.08821 8.57736L8.42836 6.98408C8.44991 6.95836 8.46987 6.93136 8.48813 6.90322C8.61524 6.70926 8.69242 6.48688 8.71278 6.25588C8.73314 6.02488 8.69607 5.79243 8.60485 5.57923C8.60268 5.57515 8.6008 5.57092 8.59922 5.56658L7.11563 2.24994C6.99385 1.97257 6.78601 1.74178 6.52287 1.59172C6.25972 1.44166 5.95526 1.3803 5.65454 1.41673C4.63386 1.55081 3.69689 2.05185 3.01862 2.82625C2.34035 3.60066 1.96716 4.59549 1.96876 5.62494C1.96876 11.3631 6.6368 16.0312 12.375 16.0312C13.4045 16.0328 14.3993 15.6596 15.1737 14.9813C15.9481 14.3031 16.4491 13.3661 16.5832 12.3454C16.6196 12.0447 16.5583 11.7402 16.4082 11.4771C16.2582 11.2139 16.0274 11.0061 15.75 10.8843ZM12.375 14.3437C10.0635 14.3409 7.84748 13.4214 6.213 11.7869C4.57852 10.1525 3.65905 7.93643 3.65626 5.62494C3.65464 5.04239 3.85241 4.47684 4.2167 4.02224C4.58099 3.56765 5.08986 3.2514 5.65876 3.12603L6.98204 6.07915L5.63485 7.68369C5.61307 7.70963 5.59288 7.73687 5.57438 7.76525C5.44159 7.96814 5.36353 8.20191 5.34776 8.44388C5.33199 8.68585 5.37905 8.92778 5.48438 9.14619C6.14672 10.5018 7.51149 11.8574 8.88118 12.5212C9.10104 12.6254 9.34419 12.6708 9.58686 12.653C9.82953 12.6351 10.0634 12.5546 10.2656 12.4192C10.2928 12.4009 10.3189 12.3809 10.3437 12.3595L11.9208 11.0186L14.8739 12.3412C14.7485 12.9101 14.4323 13.419 13.9777 13.7832C13.5231 14.1475 12.9575 14.3453 12.375 14.3437Z" fill="white"/>
</svg>
