<svg width="131" height="40" viewBox="0 0 131 40" fill="none" xmlns="http://www.w3.org/2000/svg">
<path d="M41.5662 0H0V39.7612H41.5662V0Z" fill="url(#paint0_linear_108_1352)"/>
<path d="M2.5 11.7587V1.19871H7.08795C8.2848 1.19871 9.19669 1.55355 9.78087 2.19225C10.3508 2.80257 10.6785 3.56902 10.6785 4.50579C10.6785 6.49288 9.41042 7.78449 7.17344 7.78449H4.49476V11.7587H2.5ZM4.49476 2.88773V6.20901H6.85997C8.07108 6.20901 8.698 5.55611 8.698 4.53418C8.698 3.46967 8.04258 2.88773 6.88847 2.88773H4.49476ZM16.8015 12C13.5956 12 11.5866 9.65803 11.5866 6.50708C11.5866 3.34193 13.5956 1 16.8015 1C20.0074 1 22.0164 3.34193 22.0164 6.50708C22.0164 9.65803 20.0074 12 16.8015 12ZM16.8157 10.3393C18.9102 10.3393 19.9931 8.69287 19.9931 6.50708C19.9931 4.30708 18.9102 2.61806 16.8157 2.61806C14.707 2.61806 13.5956 4.30708 13.5956 6.50708C13.5956 8.69287 14.707 10.3393 16.8157 10.3393ZM27.4666 12C24.56 12 22.9214 10.538 22.8359 8.38062H24.8165C24.9589 9.74319 25.8566 10.4245 27.4809 10.4245C28.635 10.4245 29.5896 9.92771 29.5896 8.87739C29.5896 7.74191 28.5353 7.48643 26.854 7.1032C24.8734 6.6632 23.2206 6.13805 23.2206 4.02321C23.2206 2.02193 24.8734 1.01419 27.1389 1.01419C29.6039 1.01419 31.0287 2.19225 31.2282 4.13676H29.3047C29.1479 3.10064 28.3643 2.5187 27.1104 2.5187C25.9278 2.5187 25.1442 3.01548 25.1442 3.85289C25.1442 4.83224 26.17 5.08773 27.8086 5.42837C29.7749 5.85418 31.5844 6.43611 31.5844 8.72126C31.5844 10.8219 29.8176 12 27.4666 12ZM31.9886 2.88773V1.19871H40.5946V2.88773H37.2747V11.7587H35.2942V2.88773H31.9886Z" fill="black"/>
<path d="M42.5 11.7587V1.19871H47.0879C48.2848 1.19871 49.1967 1.55355 49.7809 2.19225C50.3508 2.80257 50.6785 3.56902 50.6785 4.50579C50.6785 6.49288 49.4104 7.78449 47.1734 7.78449H44.4948V11.7587H42.5ZM44.4948 2.88773V6.20901H46.86C48.0711 6.20901 48.698 5.55611 48.698 4.53418C48.698 3.46967 48.0426 2.88773 46.8885 2.88773H44.4948ZM51.875 11.7587V1.19871H56.8761C58.8566 1.19871 60.2814 2.31999 60.2814 4.16515C60.2814 5.42837 59.7115 6.33675 58.3294 6.77675V6.81933C59.4551 7.15998 59.8683 7.79868 59.9822 9.10449C60.1532 10.6516 60.1675 11.5174 60.4524 11.6594V11.7587H58.4577C58.187 11.5884 58.187 10.7651 58.073 9.34578C57.959 8.09675 57.3748 7.55739 56.1067 7.55739H53.8412V11.7587H51.875ZM53.8412 2.80257V6.05288H56.4059C57.6455 6.05288 58.3009 5.42837 58.3009 4.44902C58.3009 3.3987 57.7453 2.80257 56.4772 2.80257H53.8412ZM66.6078 12C63.4019 12 61.3929 9.65803 61.3929 6.50708C61.3929 3.34193 63.4019 1 66.6078 1C69.8137 1 71.8227 3.34193 71.8227 6.50708C71.8227 9.65803 69.8137 12 66.6078 12ZM66.622 10.3393C68.7165 10.3393 69.7994 8.69287 69.7994 6.50708C69.7994 4.30708 68.7165 2.61806 66.622 2.61806C64.5133 2.61806 63.4019 4.30708 63.4019 6.50708C63.4019 8.69287 64.5133 10.3393 66.622 10.3393ZM73.2549 11.7587V1.19871H77.4297C80.493 1.19871 82.2456 3.32773 82.2456 6.53546C82.2456 9.68642 80.5215 11.7587 77.3157 11.7587H73.2549ZM75.2354 10.0838H77.1874C79.2819 10.0838 80.2223 8.74965 80.2223 6.53546C80.2223 4.33547 79.3247 2.87354 77.2444 2.87354H75.2354V10.0838ZM87.7627 11.9432C85.1268 11.9432 83.5167 10.7084 83.5167 8.1961V1.19871H85.483V8.16772C85.483 9.58706 86.2667 10.3109 87.777 10.3109C89.216 10.3109 90.0282 9.55868 90.0282 8.13933V1.19871H92.0087V8.1961C92.0087 10.6942 90.3702 11.9432 87.7627 11.9432ZM93.702 11.7587V1.19871H95.6683V3.63999C95.6683 4.47741 95.6255 5.32902 95.597 5.88256L100.099 1.19871H102.493L98.3327 5.42837L102.792 11.7587H100.484L96.9221 6.69159L95.6683 7.95481V11.7587H93.702ZM107.542 11.9858C104.478 11.9858 102.441 9.67223 102.441 6.50708C102.441 3.37031 104.407 1 107.556 1C108.767 1 109.765 1.31226 110.491 1.8658C111.346 2.5329 111.859 3.48386 111.987 4.59095H110.021C109.836 3.45547 108.938 2.66064 107.542 2.66064C105.519 2.66064 104.45 4.30708 104.45 6.50708C104.45 8.74965 105.661 10.3251 107.556 10.3251C109.138 10.3251 110.007 9.27481 110.121 7.99739H112.101C112.058 9.04771 111.56 10.1122 110.819 10.8219C110.049 11.5884 108.967 11.9858 107.542 11.9858ZM116.331 11.9574C114.108 11.9574 112.911 10.7651 112.911 8.53675V7.99739H114.764V8.47997C114.764 9.87093 115.277 10.3393 116.26 10.3393C117.172 10.3393 117.656 9.82835 117.656 8.77804V1.19871H119.637V8.849C119.637 9.71481 119.409 10.4245 118.924 10.9496C118.383 11.5742 117.499 11.9574 116.331 11.9574ZM120.333 11.7587L124.18 1.19871H126.288L130.15 11.7587H128.041L127.2 9.24642H123.182L122.327 11.7587H120.333ZM124.507 5.3574L123.667 7.79868H126.716L125.904 5.3574C125.491 4.10838 125.234 2.81677 125.234 2.81677H125.206C125.206 2.81677 124.849 4.34966 124.507 5.3574Z" fill="url(#paint1_linear_108_1352)"/>
<path d="M42.5 24.7725V13.8806H46.7534C49.8744 13.8806 51.66 16.0766 51.66 19.3851C51.66 22.6351 49.9035 24.7725 46.6372 24.7725H42.5ZM44.5178 23.045H46.5066C48.6405 23.045 49.5986 21.6689 49.5986 19.3851C49.5986 17.116 48.6841 15.6081 46.5647 15.6081H44.5178V23.045ZM52.2526 24.7725V23.045L56.8398 17.277C57.4059 16.5743 58.4076 15.5788 58.4076 15.5788V15.5349C58.4076 15.5349 57.0866 15.5935 56.2881 15.5935H52.6445V13.8806H60.7302V15.4763L56.2591 21.1712C55.6349 21.9324 54.5461 23.045 54.5461 23.045V23.0889C54.5461 23.0889 55.9252 23.0157 56.7672 23.0157H60.948V24.7725H52.2526ZM64.4859 24.7725L61.6116 13.8806H63.673L64.9504 19.1509C65.2698 20.4831 65.5166 22.7083 65.5166 22.7083H65.5456C65.5456 22.7083 65.894 20.3953 66.1989 19.0923L67.5199 13.8806H69.4941L70.8006 19.0777C71.1055 20.3953 71.4248 22.7083 71.4248 22.7083H71.4539C71.4539 22.7083 71.7442 20.4685 72.0781 19.1362L73.3556 13.8806H75.4169L72.4265 24.7725H70.4667L69.0877 19.0777C68.7973 17.9212 68.5215 15.813 68.5215 15.813H68.4925C68.4925 15.813 68.2021 17.9212 67.9408 19.0777L66.4892 24.7725H64.4859ZM76.5695 24.7725V13.8806H78.5873V24.7725H76.5695ZM80.493 24.7725V13.8806H88.39V15.6081H82.4963V18.3018H87.7077V19.9268H82.4963V23.0011H88.5207V24.7725H80.493ZM90.0445 24.7725V13.8806H92.0478V16.3986C92.0478 17.2624 92.0042 18.1408 91.9752 18.7117L96.5625 13.8806H99.0013L94.7624 18.2432L99.3061 24.7725H96.9544L93.3252 19.5462L92.0478 20.8491V24.7725H90.0445ZM104.287 24.9628C101.601 24.9628 99.9611 23.6892 99.9611 21.098V13.8806H101.964V21.0687C101.964 22.5326 102.763 23.2793 104.302 23.2793C105.768 23.2793 106.595 22.5034 106.595 21.0394V13.8806H108.613V21.098C108.613 23.6745 106.944 24.9628 104.287 24.9628ZM109.75 24.7725V22.7376H111.768V24.7725H109.75ZM113.34 24.7725V13.8806H118.015C119.234 13.8806 120.163 14.2466 120.758 14.9054C121.339 15.5349 121.673 16.3254 121.673 17.2917C121.673 19.3412 120.381 20.6734 118.102 20.6734H115.373V24.7725H113.34ZM115.373 15.6227V19.0484H117.782C119.016 19.0484 119.655 18.375 119.655 17.3209C119.655 16.223 118.987 15.6227 117.811 15.6227H115.373ZM122.892 24.7725V13.8806H124.895V23.0011H130.15V24.7725H122.892Z" fill="url(#paint2_linear_108_1352)"/>
<defs>
<linearGradient id="paint0_linear_108_1352" x1="0" y1="0" x2="42" y2="40" gradientUnits="userSpaceOnUse">
<stop stop-color="#00FF00"/>
<stop offset="1" stop-color="#19680B"/>
</linearGradient>
<linearGradient id="paint1_linear_108_1352" x1="42.5" y1="6.5" x2="130.15" y2="6.5" gradientUnits="userSpaceOnUse">
<stop stop-color="#D5D5D5"/>
<stop offset="1" stop-color="#838383"/>
</linearGradient>
<linearGradient id="paint2_linear_108_1352" x1="42.5" y1="19.4217" x2="130.15" y2="19.4217" gradientUnits="userSpaceOnUse">
<stop stop-color="#D5D5D5"/>
<stop offset="1" stop-color="#838383"/>
</linearGradient>
</defs>
</svg>
