<svg width="333" height="103" viewBox="0 0 333 103" fill="none" xmlns="http://www.w3.org/2000/svg">
<g clip-path="url(#clip0_88_48)">
<path d="M108.137 0H0V102.385H108.137V0Z" fill="#00FF00"/>
<mask id="mask0_88_48" style="mask-type:luminance" maskUnits="userSpaceOnUse" x="11" y="1" width="322" height="28">
<path d="M333 1.54834H11V28.5483H333V1.54834Z" fill="white"/>
</mask>
<g mask="url(#mask0_88_48)">
<path d="M11 28.0881V1.90629H21.3296C23.3154 1.90629 25.0071 2.28556 26.4049 3.04408C27.8026 3.79408 28.8679 4.83811 29.6009 6.17618C30.3424 7.50573 30.7131 9.03982 30.7131 10.7785C30.7131 12.5171 30.3381 14.0512 29.5881 15.3807C28.8381 16.7103 27.7515 17.7458 26.3282 18.4872C24.9134 19.2287 23.2003 19.5995 21.189 19.5995H14.6051V15.1634H20.294C21.3594 15.1634 22.2372 14.9801 22.9276 14.6137C23.6265 14.2387 24.1463 13.723 24.4872 13.0668C24.8367 12.402 25.0114 11.6392 25.0114 10.7785C25.0114 9.90914 24.8367 9.15061 24.4872 8.50289C24.1463 7.84664 23.6265 7.33953 22.9276 6.98158C22.2287 6.6151 21.3424 6.43186 20.2685 6.43186H16.5355V28.0881H11ZM58.3683 14.9972C58.3683 17.8523 57.8271 20.2813 56.7447 22.2841C55.6708 24.287 54.2049 25.8168 52.347 26.8736C50.4975 27.9219 48.418 28.446 46.1083 28.446C43.7816 28.446 41.6936 27.9176 39.8441 26.8608C37.9947 25.804 36.5331 24.2742 35.4592 22.2713C34.3853 20.2685 33.8484 17.8438 33.8484 14.9972C33.8484 12.1421 34.3853 9.71311 35.4592 7.71027C36.5331 5.70743 37.9947 4.18186 39.8441 3.13357C41.6936 2.07675 43.7816 1.54834 46.1083 1.54834C48.418 1.54834 50.4975 2.07675 52.347 3.13357C54.2049 4.18186 55.6708 5.70743 56.7447 7.71027C57.8271 9.71311 58.3683 12.1421 58.3683 14.9972ZM52.7561 14.9972C52.7561 13.1478 52.4791 11.5881 51.9251 10.3182C51.3797 9.04834 50.6083 8.08527 49.6112 7.42902C48.614 6.77277 47.4464 6.44465 46.1083 6.44465C44.7703 6.44465 43.6027 6.77277 42.6055 7.42902C41.6083 8.08527 40.8328 9.04834 40.2788 10.3182C39.7333 11.5881 39.4606 13.1478 39.4606 14.9972C39.4606 16.8466 39.7333 18.4063 40.2788 19.6762C40.8328 20.946 41.6083 21.9091 42.6055 22.5654C43.6027 23.2216 44.7703 23.5497 46.1083 23.5497C47.4464 23.5497 48.614 23.2216 49.6112 22.5654C50.6083 21.9091 51.3797 20.946 51.9251 19.6762C52.4791 18.4063 52.7561 16.8466 52.7561 14.9972ZM76.6719 9.43613C76.5696 8.40488 76.1307 7.60374 75.3551 7.03272C74.5796 6.46169 73.527 6.17618 72.1975 6.17618C71.2941 6.17618 70.5313 6.30402 69.9091 6.55971C69.287 6.80686 68.8097 7.15204 68.4773 7.59522C68.1534 8.0384 67.9915 8.54124 67.9915 9.10374C67.9745 9.57249 68.0725 9.98158 68.2855 10.331C68.5071 10.6804 68.8097 10.983 69.1932 11.2387C69.5767 11.4858 70.0199 11.7032 70.5228 11.8907C71.0256 12.0696 71.5625 12.223 72.1336 12.3509L74.4858 12.9134C75.6279 13.1691 76.6762 13.51 77.6307 13.9361C78.5853 14.3622 79.412 14.8864 80.1108 15.5085C80.8097 16.1307 81.3509 16.8637 81.7344 17.7074C82.1265 18.5512 82.3267 19.5185 82.3353 20.6094C82.3267 22.2117 81.9176 23.6009 81.108 24.777C80.3069 25.9446 79.1478 26.8523 77.6307 27.5C76.1222 28.1392 74.3026 28.4588 72.1719 28.4588C70.0583 28.4588 68.2174 28.135 66.6492 27.4872C65.0895 26.8395 63.8708 25.8807 62.9929 24.6108C62.1236 23.3324 61.6676 21.7514 61.625 19.8679H66.9816C67.0412 20.7458 67.2926 21.4787 67.7358 22.0668C68.1875 22.6463 68.7884 23.0853 69.5384 23.3835C70.2969 23.6733 71.1534 23.8182 72.108 23.8182C73.0455 23.8182 73.8594 23.6818 74.5497 23.4091C75.2486 23.1364 75.7898 22.7571 76.1733 22.2713C76.5569 21.7855 76.7486 21.2273 76.7486 20.5966C76.7486 20.0085 76.5739 19.5142 76.2245 19.1137C75.8836 18.7131 75.3807 18.3722 74.7159 18.0909C74.0597 17.8097 73.2543 17.554 72.2997 17.3239L69.4489 16.608C67.2415 16.071 65.4986 15.2316 64.2202 14.0895C62.9418 12.9475 62.3069 11.4091 62.3154 9.47448C62.3069 7.88925 62.7287 6.50431 63.581 5.31965C64.4418 4.13499 65.6222 3.21027 67.1222 2.5455C68.6222 1.88073 70.3267 1.54834 72.2358 1.54834C74.179 1.54834 75.875 1.88073 77.3239 2.5455C78.7813 3.21027 79.9148 4.13499 80.7245 5.31965C81.5341 6.50431 81.9517 7.87647 81.9773 9.43613H76.6719ZM85.0615 6.47022V1.90629H106.564V6.47022H98.5487V28.0881H93.0771V6.47022H85.0615Z" fill="black"/>
<path d="M110.105 28.0881V1.90629H120.435C122.421 1.90629 124.113 2.28556 125.51 3.04408C126.908 3.79408 127.973 4.83811 128.706 6.17618C129.448 7.50573 129.818 9.03982 129.818 10.7785C129.818 12.5171 129.443 14.0512 128.693 15.3807C127.943 16.7103 126.857 17.7458 125.434 18.4872C124.019 19.2287 122.306 19.5995 120.294 19.5995H113.711V15.1634H119.399C120.465 15.1634 121.343 14.9801 122.033 14.6137C122.732 14.2387 123.252 13.723 123.593 13.0668C123.942 12.402 124.117 11.6392 124.117 10.7785C124.117 9.90914 123.942 9.15061 123.593 8.50289C123.252 7.84664 122.732 7.33953 122.033 6.98158C121.334 6.6151 120.448 6.43186 119.374 6.43186H115.641V28.0881H110.105ZM133.414 28.0881V1.90629H143.744C145.721 1.90629 147.408 2.25999 148.806 2.96738C150.212 3.66624 151.282 4.65914 152.015 5.94607C152.756 7.22448 153.127 8.72874 153.127 10.4588C153.127 12.1975 152.752 13.6932 152.002 14.946C151.252 16.1904 150.165 17.1449 148.742 17.8097C147.327 18.4745 145.614 18.8068 143.603 18.8068H136.687V14.358H142.708C143.765 14.358 144.643 14.2131 145.342 13.9233C146.04 13.6335 146.56 13.1989 146.901 12.6193C147.251 12.0398 147.425 11.3196 147.425 10.4588C147.425 9.58953 147.251 8.85658 146.901 8.25999C146.56 7.6634 146.036 7.21169 145.329 6.90488C144.63 6.58954 143.748 6.43186 142.682 6.43186H138.95V28.0881H133.414ZM147.553 16.1733L154.06 28.0881H147.95L141.583 16.1733H147.553ZM181.099 14.9972C181.099 17.8523 180.557 20.2813 179.475 22.2841C178.401 24.287 176.935 25.8168 175.077 26.8736C173.228 27.9219 171.148 28.446 168.839 28.446C166.512 28.446 164.424 27.9176 162.575 26.8608C160.725 25.804 159.263 24.2742 158.19 22.2713C157.116 20.2685 156.579 17.8438 156.579 14.9972C156.579 12.1421 157.116 9.71311 158.19 7.71027C159.263 5.70743 160.725 4.18186 162.575 3.13357C164.424 2.07675 166.512 1.54834 168.839 1.54834C171.148 1.54834 173.228 2.07675 175.077 3.13357C176.935 4.18186 178.401 5.70743 179.475 7.71027C180.557 9.71311 181.099 12.1421 181.099 14.9972ZM175.486 14.9972C175.486 13.1478 175.209 11.5881 174.655 10.3182C174.11 9.04834 173.339 8.08527 172.342 7.42902C171.344 6.77277 170.177 6.44465 168.839 6.44465C167.501 6.44465 166.333 6.77277 165.336 7.42902C164.339 8.08527 163.563 9.04834 163.009 10.3182C162.464 11.5881 162.191 13.1478 162.191 14.9972C162.191 16.8466 162.464 18.4063 163.009 19.6762C163.563 20.946 164.339 21.9091 165.336 22.5654C166.333 23.2216 167.501 23.5497 168.839 23.5497C170.177 23.5497 171.344 23.2216 172.342 22.5654C173.339 21.9091 174.11 20.946 174.655 19.6762C175.209 18.4063 175.486 16.8466 175.486 14.9972ZM194.48 28.0881H185.199V1.90629H194.557C197.191 1.90629 199.458 2.43044 201.358 3.47874C203.259 4.51851 204.72 6.01425 205.743 7.96596C206.774 9.91766 207.29 12.2529 207.29 14.9716C207.29 17.6989 206.774 20.0426 205.743 22.0029C204.72 23.9631 203.25 25.4674 201.333 26.5157C199.424 27.5639 197.139 28.0881 194.48 28.0881ZM190.735 23.3452H194.25C195.887 23.3452 197.263 23.0554 198.38 22.4759C199.505 21.8878 200.348 20.9801 200.911 19.7529C201.482 18.5171 201.767 16.9233 201.767 14.9716C201.767 13.037 201.482 11.456 200.911 10.2287C200.348 9.00147 199.509 8.09806 198.392 7.51851C197.276 6.93897 195.899 6.64919 194.263 6.64919H190.735V23.3452ZM227.562 1.90629H233.098V18.9091C233.098 20.8182 232.642 22.4887 231.73 23.9205C230.827 25.3523 229.561 26.4688 227.933 27.2699C226.305 28.0625 224.409 28.4588 222.244 28.4588C220.071 28.4588 218.17 28.0625 216.543 27.2699C214.915 26.4688 213.649 25.3523 212.746 23.9205C211.842 22.4887 211.391 20.8182 211.391 18.9091V1.90629H216.926V18.4361C216.926 19.4333 217.143 20.3196 217.578 21.0952C218.021 21.8708 218.643 22.4801 219.445 22.9233C220.246 23.3665 221.179 23.5881 222.244 23.5881C223.318 23.5881 224.251 23.3665 225.044 22.9233C225.845 22.4801 226.463 21.8708 226.898 21.0952C227.341 20.3196 227.562 19.4333 227.562 18.4361V1.90629ZM237.652 28.0881V1.90629H243.188V13.4503H243.533L252.955 1.90629H259.59L249.874 13.6293L259.705 28.0881H253.083L245.911 17.3239L243.188 20.6478V28.0881H237.652ZM284.097 11.0725H278.497C278.395 10.3481 278.186 9.70459 277.871 9.14209C277.556 8.57107 277.151 8.08527 276.657 7.68471C276.162 7.28414 275.591 6.97732 274.943 6.76425C274.304 6.55118 273.61 6.44465 272.86 6.44465C271.505 6.44465 270.324 6.7813 269.318 7.45459C268.313 8.11936 267.533 9.09096 266.979 10.3694C266.425 11.6392 266.148 13.1818 266.148 14.9972C266.148 16.8637 266.425 18.4318 266.979 19.7017C267.541 20.9716 268.326 21.9304 269.331 22.5782C270.337 23.2259 271.5 23.5497 272.821 23.5497C273.563 23.5497 274.249 23.4517 274.88 23.2557C275.519 23.0597 276.086 22.7742 276.58 22.3992C277.074 22.0157 277.483 21.5512 277.807 21.0057C278.139 20.4603 278.37 19.8381 278.497 19.1392L284.097 19.1648C283.952 20.3665 283.59 21.5256 283.01 22.6421C282.439 23.75 281.668 24.7429 280.696 25.6208C279.733 26.4901 278.583 27.1804 277.245 27.6918C275.915 28.1946 274.411 28.446 272.732 28.446C270.397 28.446 268.309 27.9176 266.468 26.8608C264.635 25.804 263.186 24.2742 262.121 22.2713C261.064 20.2685 260.536 17.8438 260.536 14.9972C260.536 12.1421 261.073 9.71311 262.147 7.71027C263.22 5.70743 264.678 4.18186 266.519 3.13357C268.36 2.07675 270.431 1.54834 272.732 1.54834C274.249 1.54834 275.655 1.76141 276.951 2.18754C278.255 2.61368 279.409 3.23584 280.415 4.05402C281.421 4.86368 282.239 5.85658 282.87 7.03272C283.509 8.20885 283.918 9.55544 284.097 11.0725ZM298.549 1.90629H304.021V20.162C304.021 21.8495 303.642 23.3154 302.883 24.5597C302.133 25.804 301.089 26.7628 299.751 27.4361C298.413 28.1094 296.858 28.446 295.085 28.446C293.508 28.446 292.076 28.1691 290.789 27.6151C289.511 27.0526 288.497 26.2003 287.747 25.0583C286.997 23.9077 286.626 22.4631 286.635 20.7245H292.144C292.162 21.4148 292.302 22.0071 292.566 22.5014C292.839 22.9872 293.21 23.3622 293.679 23.6264C294.156 23.8821 294.718 24.01 295.366 24.01C296.048 24.01 296.623 23.8651 297.092 23.5753C297.569 23.277 297.931 22.8424 298.179 22.2713C298.426 21.7003 298.549 20.9972 298.549 20.162V1.90629ZM313.11 28.0881H307.179L316.217 1.90629H323.35L332.376 28.0881H326.444L319.886 7.88925H319.681L313.11 28.0881ZM312.74 17.7969H326.751V22.1179H312.74V17.7969Z" fill="#999999"/>
</g>
<path d="M119.131 56.3065H110V30.5483H119.207C121.797 30.5483 124.028 31.064 125.898 32.0953C127.767 33.1183 129.205 34.5898 130.212 36.5099C131.226 38.4301 131.733 40.7275 131.733 43.4022C131.733 46.0854 131.226 48.3912 130.212 50.3197C129.205 52.2482 127.759 53.7281 125.872 54.7595C123.994 55.7908 121.747 56.3065 119.131 56.3065ZM115.446 51.6403H118.905C120.515 51.6403 121.869 51.3552 122.967 50.7851C124.074 50.2065 124.904 49.3135 125.457 48.1061C126.019 46.8903 126.3 45.3223 126.3 43.4022C126.3 41.4989 126.019 39.9435 125.457 38.7361C124.904 37.5287 124.078 36.6399 122.98 36.0697C121.881 35.4996 120.527 35.2145 118.917 35.2145H115.446V51.6403ZM135.491 56.3065V53.0741L148.345 35.0384H135.466V30.5483H155.187V33.7807L142.32 51.8164H155.212V56.3065H135.491ZM165.189 56.3065L157.819 30.5483H163.768L168.031 48.4457H168.245L172.949 30.5483H178.043L182.734 48.4834H182.96L187.224 30.5483H193.173L185.803 56.3065H180.495L175.59 39.4656H175.389L170.496 56.3065H165.189ZM201.534 30.5483V56.3065H196.088V30.5483H201.534ZM206.015 56.3065V30.5483H223.371V35.0384H211.46V41.1761H222.478V45.6661H211.46V51.8164H223.421V56.3065H206.015ZM227.701 56.3065V30.5483H233.147V41.9055H233.486L242.756 30.5483H249.283L239.725 42.0816L249.396 56.3065H242.881L235.826 45.7164L233.147 48.9865V56.3065H227.701ZM268.03 30.5483H273.476V47.276C273.476 49.1542 273.027 50.7976 272.13 52.2063C271.241 53.6149 269.996 54.7133 268.394 55.5015C266.793 56.2813 264.927 56.6712 262.798 56.6712C260.659 56.6712 258.79 56.2813 257.188 55.5015C255.587 54.7133 254.341 53.6149 253.453 52.2063C252.564 50.7976 252.119 49.1542 252.119 47.276V30.5483H257.565V46.8107C257.565 47.7917 257.779 48.6637 258.207 49.4267C258.643 50.1897 259.255 50.7892 260.043 51.2253C260.831 51.6613 261.749 51.8793 262.798 51.8793C263.854 51.8793 264.772 51.6613 265.552 51.2253C266.34 50.7892 266.948 50.1897 267.376 49.4267C267.812 48.6637 268.03 47.7917 268.03 46.8107V30.5483ZM279.777 56.6335C278.947 56.6335 278.234 56.34 277.639 55.7531C277.052 55.1577 276.758 54.445 276.758 53.6149C276.758 52.7932 277.052 52.0889 277.639 51.502C278.234 50.915 278.947 50.6216 279.777 50.6216C280.582 50.6216 281.286 50.915 281.89 51.502C282.493 52.0889 282.795 52.7932 282.795 53.6149C282.795 54.1683 282.653 54.6756 282.368 55.1368C282.091 55.5896 281.726 55.9543 281.273 56.231C280.821 56.4993 280.322 56.6335 279.777 56.6335ZM287.295 56.3065V30.5483H297.457C299.411 30.5483 301.075 30.9215 302.45 31.6677C303.825 32.4056 304.874 33.4327 305.595 34.7491C306.324 36.0572 306.689 37.5664 306.689 39.2769C306.689 40.9874 306.32 42.4967 305.582 43.8047C304.844 45.1127 303.775 46.1315 302.375 46.861C300.983 47.5904 299.298 47.9552 297.319 47.9552H290.842V43.5909H296.438C297.487 43.5909 298.35 43.4106 299.029 43.0501C299.717 42.6811 300.228 42.1738 300.564 41.5282C300.908 40.8742 301.079 40.1238 301.079 39.2769C301.079 38.4217 300.908 37.6754 300.564 37.0382C300.228 36.3926 299.717 35.8937 299.029 35.5415C298.342 35.1809 297.47 35.0007 296.413 35.0007H292.741V56.3065H287.295ZM310.226 56.3065V30.5483H315.672V51.8164H326.715V56.3065H310.226Z" fill="#999999"/>
</g>
<defs>
<clipPath id="clip0_88_48">
<rect width="333" height="103" fill="white"/>
</clipPath>
</defs>
</svg>
