<svg width="354" height="72" viewBox="0 0 354 72" fill="none" xmlns="http://www.w3.org/2000/svg">
<rect width="353.913" height="72" fill="black"/>
<foreignObject x="-12" y="-12" width="96" height="96"><div xmlns="http://www.w3.org/1999/xhtml" style="backdrop-filter:blur(12px);clip-path:url(#bgblur_0_91_927_clip_path);height:100%;width:100%"></div></foreignObject><g data-figma-bg-blur-radius="24">
<rect x="12.5" y="12.5" width="47" height="47" fill="#00FF00" fill-opacity="0.05"/>
<rect x="12.5" y="12.5" width="47" height="47" stroke="#00FF00"/>
<path d="M46.5 36C46.5006 36.2546 46.4353 36.5051 46.3105 36.727C46.1856 36.949 46.0055 37.1348 45.7875 37.2665L32.28 45.5297C32.0523 45.6691 31.7914 45.7452 31.5244 45.7502C31.2575 45.7551 30.994 45.6887 30.7613 45.5578C30.5307 45.4289 30.3387 45.2409 30.2049 45.0132C30.0711 44.7855 30.0004 44.5263 30 44.2622V27.7378C30.0004 27.4737 30.0711 27.2144 30.2049 26.9867C30.3387 26.759 30.5307 26.5711 30.7613 26.4422C30.994 26.3112 31.2575 26.2448 31.5244 26.2498C31.7914 26.2547 32.0523 26.3308 32.28 26.4703L45.7875 34.7334C46.0055 34.8651 46.1856 35.051 46.3105 35.2729C46.4353 35.4949 46.5006 35.7453 46.5 36Z" fill="#00FF00"/>
</g>
<path d="M86.3253 14.3014C86.3253 13.6661 85.8048 13.1511 85.1627 13.1511C84.5205 13.1511 84 13.6661 84 14.3014V57.6984C84 58.3337 84.5205 58.8487 85.1627 58.8487C85.8048 58.8487 86.3253 58.3337 86.3253 57.6984V14.3014Z" fill="#00FF00"/>
<path d="M90.8278 25.5385C90.8278 24.9032 90.3072 24.3882 89.6651 24.3882C89.023 24.3882 88.5024 24.9032 88.5024 25.5385V46.4612C88.5024 47.0965 89.023 47.6115 89.6651 47.6115C90.3072 47.6115 90.8278 47.0965 90.8278 46.4612V25.5385Z" fill="#00FF00"/>
<path d="M95.3297 25.5385C95.3297 24.9032 94.8092 24.3882 94.1671 24.3882C93.5249 24.3882 93.0044 24.9032 93.0044 25.5385V46.4612C93.0044 47.0965 93.5249 47.6115 94.1671 47.6115C94.8092 47.6115 95.3297 47.0965 95.3297 46.4612V25.5385Z" fill="#00FF00"/>
<path d="M99.8322 25.5385C99.8322 24.9032 99.3116 24.3882 98.6695 24.3882C98.0274 24.3882 97.5068 24.9032 97.5068 25.5385V46.4612C97.5068 47.0965 98.0274 47.6115 98.6695 47.6115C99.3116 47.6115 99.8322 47.0965 99.8322 46.4612V25.5385Z" fill="#00FF00"/>
<path d="M104.335 29.2844C104.335 28.649 103.814 28.134 103.172 28.134C102.53 28.134 102.009 28.649 102.009 29.2844V42.7157C102.009 43.351 102.53 43.866 103.172 43.866C103.814 43.866 104.335 43.351 104.335 42.7157V29.2844Z" fill="#00FF00"/>
<path d="M108.837 27.0368C108.837 26.4015 108.316 25.8865 107.674 25.8865C107.032 25.8865 106.511 26.4015 106.511 27.0368V44.963C106.511 45.5983 107.032 46.1133 107.674 46.1133C108.316 46.1133 108.837 45.5983 108.837 44.963V27.0368Z" fill="#00FF00"/>
<path d="M113.339 33.03C113.339 32.3947 112.818 31.8796 112.176 31.8796C111.534 31.8796 111.013 32.3947 111.013 33.03V38.9699C111.013 39.6052 111.534 40.1202 112.176 40.1202C112.818 40.1202 113.339 39.6052 113.339 38.9699V33.03Z" fill="#00FF00"/>
<path d="M117.841 27.0368C117.841 26.4015 117.32 25.8865 116.678 25.8865C116.036 25.8865 115.516 26.4015 115.516 27.0368V44.963C115.516 45.5983 116.036 46.1133 116.678 46.1133C117.32 46.1133 117.841 45.5983 117.841 44.963V27.0368Z" fill="#00FF00"/>
<path d="M122.343 15.7997C122.343 15.1644 121.823 14.6494 121.181 14.6494C120.539 14.6494 120.018 15.1644 120.018 15.7997V56.2003C120.018 56.8356 120.539 57.3506 121.181 57.3506C121.823 57.3506 122.343 56.8356 122.343 56.2003V15.7997Z" fill="#00FF00"/>
<path d="M126.845 22.5419C126.845 21.9066 126.325 21.3916 125.683 21.3916C125.041 21.3916 124.52 21.9066 124.52 22.5419V49.4578C124.52 50.0931 125.041 50.6081 125.683 50.6081C126.325 50.6081 126.845 50.0931 126.845 49.4578V22.5419Z" fill="#00FF00"/>
<path d="M131.348 27.0368C131.348 26.4015 130.827 25.8865 130.185 25.8865C129.543 25.8865 129.022 26.4015 129.022 27.0368V44.963C129.022 45.5983 129.543 46.1133 130.185 46.1133C130.827 46.1133 131.348 45.5983 131.348 44.963V27.0368Z" fill="#00FF00"/>
<path d="M135.85 30.7826C135.85 30.1473 135.33 29.6323 134.688 29.6323C134.045 29.6323 133.525 30.1473 133.525 30.7826V41.2174C133.525 41.8527 134.045 42.3677 134.688 42.3677C135.33 42.3677 135.85 41.8527 135.85 41.2174V30.7826Z" fill="#00FF00"/>
<path d="M140.353 22.5419C140.353 21.9066 139.832 21.3916 139.19 21.3916C138.548 21.3916 138.027 21.9066 138.027 22.5419V49.4578C138.027 50.0931 138.548 50.6081 139.19 50.6081C139.832 50.6081 140.353 50.0931 140.353 49.4578V22.5419Z" fill="#00FF00"/>
<path d="M144.855 15.7997C144.855 15.1644 144.334 14.6494 143.692 14.6494C143.05 14.6494 142.529 15.1644 142.529 15.7997V56.2003C142.529 56.8356 143.05 57.3506 143.692 57.3506C144.334 57.3506 144.855 56.8356 144.855 56.2003V15.7997Z" fill="#00FF00"/>
<path d="M149.357 22.5419C149.357 21.9066 148.837 21.3916 148.194 21.3916C147.552 21.3916 147.032 21.9066 147.032 22.5419V49.4578C147.032 50.0931 147.552 50.6081 148.194 50.6081C148.837 50.6081 149.357 50.0931 149.357 49.4578V22.5419Z" fill="#00FF00"/>
<path d="M153.86 22.5419C153.86 21.9066 153.339 21.3916 152.697 21.3916C152.055 21.3916 151.534 21.9066 151.534 22.5419V49.4578C151.534 50.0931 152.055 50.6081 152.697 50.6081C153.339 50.6081 153.86 50.0931 153.86 49.4578V22.5419Z" fill="#00FF00"/>
<path d="M158.361 20.2946C158.361 19.6593 157.841 19.1443 157.199 19.1443C156.557 19.1443 156.036 19.6593 156.036 20.2946V51.7053C156.036 52.3406 156.557 52.8556 157.199 52.8556C157.841 52.8556 158.361 52.3406 158.361 51.7053V20.2946Z" fill="#00FF00"/>
<path d="M162.864 15.7997C162.864 15.1644 162.343 14.6494 161.701 14.6494C161.059 14.6494 160.539 15.1644 160.539 15.7997V56.2003C160.539 56.8356 161.059 57.3506 161.701 57.3506C162.343 57.3506 162.864 56.8356 162.864 56.2003V15.7997Z" fill="#00FF00"/>
<path d="M167.366 24.0402C167.366 23.4049 166.846 22.8899 166.204 22.8899C165.562 22.8899 165.041 23.4049 165.041 24.0402V47.9595C165.041 48.5948 165.562 49.1098 166.204 49.1098C166.846 49.1098 167.366 48.5948 167.366 47.9595V24.0402Z" fill="#00FF00"/>
<path d="M171.868 27.0368C171.868 26.4015 171.348 25.8865 170.706 25.8865C170.064 25.8865 169.543 26.4015 169.543 27.0368V44.963C169.543 45.5983 170.064 46.1133 170.706 46.1133C171.348 46.1133 171.868 45.5983 171.868 44.963V27.0368Z" fill="#00FF00"/>
<path d="M176.371 22.5419C176.371 21.9066 175.85 21.3916 175.208 21.3916C174.566 21.3916 174.045 21.9066 174.045 22.5419V49.4578C174.045 50.0931 174.566 50.6081 175.208 50.6081C175.85 50.6081 176.371 50.0931 176.371 49.4578V22.5419Z" fill="#00FF00"/>
<path d="M180.873 22.5419C180.873 21.9066 180.352 21.3916 179.71 21.3916C179.068 21.3916 178.547 21.9066 178.547 22.5419V49.4578C178.547 50.0931 179.068 50.6081 179.71 50.6081C180.352 50.6081 180.873 50.0931 180.873 49.4578V22.5419Z" fill="#00FF00"/>
<path d="M185.375 25.5385C185.375 24.9032 184.855 24.3882 184.212 24.3882C183.57 24.3882 183.05 24.9032 183.05 25.5385V46.4612C183.05 47.0965 183.57 47.6115 184.212 47.6115C184.855 47.6115 185.375 47.0965 185.375 46.4612V25.5385Z" fill="#00FF00"/>
<path d="M189.877 17.298C189.877 16.6627 189.357 16.1477 188.714 16.1477C188.072 16.1477 187.552 16.6627 187.552 17.298V54.7018C187.552 55.3371 188.072 55.8521 188.714 55.8521C189.357 55.8521 189.877 55.3371 189.877 54.7018V17.298Z" fill="#898E8E"/>
<path d="M194.38 20.2946C194.38 19.6593 193.859 19.1443 193.217 19.1443C192.575 19.1443 192.054 19.6593 192.054 20.2946V51.7053C192.054 52.3406 192.575 52.8556 193.217 52.8556C193.859 52.8556 194.38 52.3406 194.38 51.7053V20.2946Z" fill="#898E8E"/>
<path d="M198.882 24.0402C198.882 23.4049 198.361 22.8899 197.719 22.8899C197.077 22.8899 196.557 23.4049 196.557 24.0402V47.9595C196.557 48.5948 197.077 49.1098 197.719 49.1098C198.361 49.1098 198.882 48.5948 198.882 47.9595V24.0402Z" fill="#898E8E"/>
<path d="M203.384 25.5385C203.384 24.9032 202.863 24.3882 202.221 24.3882C201.579 24.3882 201.059 24.9032 201.059 25.5385V46.4612C201.059 47.0965 201.579 47.6115 202.221 47.6115C202.863 47.6115 203.384 47.0965 203.384 46.4612V25.5385Z" fill="#898E8E"/>
<path d="M207.886 22.5419C207.886 21.9066 207.366 21.3916 206.724 21.3916C206.082 21.3916 205.561 21.9066 205.561 22.5419V49.4578C205.561 50.0931 206.082 50.6081 206.724 50.6081C207.366 50.6081 207.886 50.0931 207.886 49.4578V22.5419Z" fill="#898E8E"/>
<path d="M212.389 14.3014C212.389 13.6661 211.868 13.1511 211.226 13.1511C210.584 13.1511 210.063 13.6661 210.063 14.3014V57.6984C210.063 58.3337 210.584 58.8487 211.226 58.8487C211.868 58.8487 212.389 58.3337 212.389 57.6984V14.3014Z" fill="#898E8E"/>
<path d="M216.891 25.5385C216.891 24.9032 216.37 24.3882 215.728 24.3882C215.086 24.3882 214.565 24.9032 214.565 25.5385V46.4612C214.565 47.0965 215.086 47.6115 215.728 47.6115C216.37 47.6115 216.891 47.0965 216.891 46.4612V25.5385Z" fill="#898E8E"/>
<path d="M221.393 25.5385C221.393 24.9032 220.873 24.3882 220.231 24.3882C219.588 24.3882 219.068 24.9032 219.068 25.5385V46.4612C219.068 47.0965 219.588 47.6115 220.231 47.6115C220.873 47.6115 221.393 47.0965 221.393 46.4612V25.5385Z" fill="#898E8E"/>
<path d="M225.896 25.5385C225.896 24.9032 225.375 24.3882 224.733 24.3882C224.091 24.3882 223.57 24.9032 223.57 25.5385V46.4612C223.57 47.0965 224.091 47.6115 224.733 47.6115C225.375 47.6115 225.896 47.0965 225.896 46.4612V25.5385Z" fill="#898E8E"/>
<path d="M230.398 31.5317C230.398 30.8964 229.877 30.3813 229.235 30.3813C228.593 30.3813 228.072 30.8964 228.072 31.5317V40.4681C228.072 41.1035 228.593 41.6185 229.235 41.6185C229.877 41.6185 230.398 41.1035 230.398 40.4681V31.5317Z" fill="#898E8E"/>
<path d="M234.9 30.0334C234.9 29.3981 234.38 28.8831 233.737 28.8831C233.095 28.8831 232.575 29.3981 232.575 30.0334V41.9664C232.575 42.6017 233.095 43.1167 233.737 43.1167C234.38 43.1167 234.9 42.6017 234.9 41.9664V30.0334Z" fill="#898E8E"/>
<path d="M239.402 34.5283C239.402 33.8929 238.882 33.3779 238.24 33.3779C237.598 33.3779 237.077 33.8929 237.077 34.5283V37.4716C237.077 38.1069 237.598 38.6219 238.24 38.6219C238.882 38.6219 239.402 38.1069 239.402 37.4716V34.5283Z" fill="#898E8E"/>
<path d="M243.904 30.0334C243.904 29.3981 243.384 28.8831 242.742 28.8831C242.1 28.8831 241.579 29.3981 241.579 30.0334V41.9664C241.579 42.6017 242.1 43.1167 242.742 43.1167C243.384 43.1167 243.904 42.6017 243.904 41.9664V30.0334Z" fill="#898E8E"/>
<path d="M248.406 22.5419C248.406 21.9066 247.886 21.3916 247.244 21.3916C246.602 21.3916 246.081 21.9066 246.081 22.5419V49.4578C246.081 50.0931 246.602 50.6081 247.244 50.6081C247.886 50.6081 248.406 50.0931 248.406 49.4578V22.5419Z" fill="#898E8E"/>
<path d="M252.909 27.0368C252.909 26.4015 252.388 25.8865 251.746 25.8865C251.104 25.8865 250.583 26.4015 250.583 27.0368V44.963C250.583 45.5983 251.104 46.1133 251.746 46.1133C252.388 46.1133 252.909 45.5983 252.909 44.963V27.0368Z" fill="#898E8E"/>
<path d="M257.411 30.0334C257.411 29.3981 256.891 28.8831 256.249 28.8831C255.606 28.8831 255.086 29.3981 255.086 30.0334V41.9664C255.086 42.6017 255.606 43.1167 256.249 43.1167C256.891 43.1167 257.411 42.6017 257.411 41.9664V30.0334Z" fill="#898E8E"/>
<path d="M261.913 33.03C261.913 32.3947 261.393 31.8796 260.751 31.8796C260.108 31.8796 259.588 32.3947 259.588 33.03V38.9699C259.588 39.6052 260.108 40.1202 260.751 40.1202C261.393 40.1202 261.913 39.6052 261.913 38.9699V33.03Z" fill="#898E8E"/>
<path d="M291.084 41.6932C290.186 41.6894 289.419 41.4527 288.783 40.983C288.146 40.5133 287.659 39.8295 287.322 38.9318C286.985 38.0341 286.817 36.9527 286.817 35.6875C286.817 34.4261 286.985 33.3485 287.322 32.4545C287.663 31.5606 288.152 30.8788 288.788 30.4091C289.428 29.9394 290.194 29.7045 291.084 29.7045C291.974 29.7045 292.737 29.9413 293.373 30.4148C294.01 30.8845 294.497 31.5663 294.834 32.4602C295.175 33.3504 295.345 34.4261 295.345 35.6875C295.345 36.9564 295.176 38.0398 294.839 38.9375C294.502 39.8314 294.015 40.5152 293.379 40.9886C292.743 41.4583 291.978 41.6932 291.084 41.6932ZM291.084 40.1761C291.872 40.1761 292.487 39.7917 292.93 39.0227C293.377 38.2538 293.601 37.142 293.601 35.6875C293.601 34.7216 293.498 33.9053 293.294 33.2386C293.093 32.5682 292.803 32.0606 292.425 31.7159C292.05 31.3674 291.603 31.1932 291.084 31.1932C290.3 31.1932 289.684 31.5795 289.237 32.3523C288.79 33.125 288.565 34.2367 288.561 35.6875C288.561 36.6572 288.661 37.4773 288.862 38.1477C289.067 38.8144 289.356 39.3201 289.731 39.6648C290.106 40.0057 290.557 40.1761 291.084 40.1761ZM301.775 29.8636V41.5H300.014V31.625H299.946L297.162 33.4432V31.7614L300.065 29.8636H301.775ZM306.065 40.0568C305.755 40.0568 305.488 39.947 305.264 39.7273C305.041 39.5038 304.929 39.2348 304.929 38.9205C304.929 38.6098 305.041 38.3447 305.264 38.125C305.488 37.9015 305.755 37.7898 306.065 37.7898C306.376 37.7898 306.643 37.9015 306.866 38.125C307.09 38.3447 307.202 38.6098 307.202 38.9205C307.202 39.1288 307.149 39.3201 307.042 39.4943C306.94 39.6648 306.804 39.8011 306.633 39.9034C306.463 40.0057 306.274 40.0568 306.065 40.0568ZM306.065 34.2273C305.755 34.2273 305.488 34.1174 305.264 33.8977C305.041 33.6742 304.929 33.4053 304.929 33.0909C304.929 32.7803 305.041 32.5152 305.264 32.2955C305.488 32.072 305.755 31.9602 306.065 31.9602C306.376 31.9602 306.643 32.072 306.866 32.2955C307.09 32.5152 307.202 32.7803 307.202 33.0909C307.202 33.2992 307.149 33.4905 307.042 33.6648C306.94 33.8352 306.804 33.9716 306.633 34.0739C306.463 34.1761 306.274 34.2273 306.065 34.2273ZM313.506 41.6932C312.608 41.6894 311.841 41.4527 311.204 40.983C310.568 40.5133 310.081 39.8295 309.744 38.9318C309.407 38.0341 309.238 36.9527 309.238 35.6875C309.238 34.4261 309.407 33.3485 309.744 32.4545C310.085 31.5606 310.574 30.8788 311.21 30.4091C311.85 29.9394 312.615 29.7045 313.506 29.7045C314.396 29.7045 315.159 29.9413 315.795 30.4148C316.432 30.8845 316.918 31.5663 317.256 32.4602C317.596 33.3504 317.767 34.4261 317.767 35.6875C317.767 36.9564 317.598 38.0398 317.261 38.9375C316.924 39.8314 316.437 40.5152 315.801 40.9886C315.165 41.4583 314.399 41.6932 313.506 41.6932ZM313.506 40.1761C314.293 40.1761 314.909 39.7917 315.352 39.0227C315.799 38.2538 316.023 37.142 316.023 35.6875C316.023 34.7216 315.92 33.9053 315.716 33.2386C315.515 32.5682 315.225 32.0606 314.846 31.7159C314.471 31.3674 314.024 31.1932 313.506 31.1932C312.721 31.1932 312.106 31.5795 311.659 32.3523C311.212 33.125 310.987 34.2367 310.983 35.6875C310.983 36.6572 311.083 37.4773 311.284 38.1477C311.488 38.8144 311.778 39.3201 312.153 39.6648C312.528 40.0057 312.979 40.1761 313.506 40.1761ZM319.538 39.2273V37.8068L324.567 29.8636H325.686V31.9545H324.976L321.379 37.6477V37.7386H328.271V39.2273H319.538ZM325.055 41.5V38.7955L325.067 38.1477V29.8636H326.731V41.5H325.055Z" fill="white"/>
<defs>
<clipPath id="bgblur_0_91_927_clip_path" transform="translate(12 12)"><rect x="12.5" y="12.5" width="47" height="47"/>
</clipPath></defs>
</svg>
